<?xml version="1.0" encoding="iso-8859-1"?><!-- Uploaded to: SVG Repo, www.svgrepo.com, Generator: SVG Repo Mixer Tools -->
<svg fill="#A5A3A4" height="800px" width="800px" version="1.1" id="Layer_1"
    xmlns="http://www.w3.org/2000/svg" viewBox="0 0 512 512" xml:space="preserve">
<g>
	<g>
		<g>
			<path d="M193.195,296.827c1.468,1.126,3.205,1.675,4.931,1.675c2.276,0,4.535-0.956,6.135-2.798
				c0.141-0.163,1.387-1.614,3.226-4.151c20.611-23.295,80.011-31.014,101.237-32.021c4.39-0.205,7.818-3.874,7.725-8.268
				c-0.092-4.395-3.67-7.916-8.065-7.938c-57.687-0.283-85.162-33.664-92.409-44.248c-0.731-1.229-1.507-2.462-2.311-3.668
				c-2.402-3.604-7.215-4.683-10.93-2.447c-3.712,2.237-5.008,6.998-2.943,10.807c0.09,0.165,0.902,1.646,2.48,3.988
				c18.26,31.222,1.021,61.739-7.517,73.726c-1.211,1.415-2.331,2.882-3.335,4.364C189.011,289.401,189.791,294.215,193.195,296.827
				z M226.379,232.938c8.268,6.371,18.659,12.68,31.389,17.553c-11.829,2.731-24.231,6.471-35.401,11.587
				C225.116,253.438,226.918,243.528,226.379,232.938z" />
            <path d="M503.266,226.412c-17.725-45.979-60.885-78.505-109.995-82.906c-27.564-3.654-47.772-24.086-55.352-32.935
				c-1.468-1.958-3.014-3.93-4.596-5.87c-0.639-0.881-1.332-1.717-2.069-2.492c-35.764-42.332-88.012-66.607-143.391-66.607
				c-23.147,0-45.878,4.238-67.564,12.598C73.57,66.214,36.624,101.41,16.266,147.309c-14.095,31.779-19.043,66.008-14.779,99.57
				c-3.757,30.4,0.078,61.591,11.143,90.294c8.031,20.831,19.527,39.836,34.166,56.486c4.411,5.358,27.467,31.639,71.594,53.277
				c30.222,14.819,75.067,29.463,134.245,29.462c24.665,0,51.814-2.541,81.435-8.676c6.664-1.182,13.469-2.548,20.229-4.061
				c4.369-0.977,7.118-5.313,6.141-9.682c-0.979-4.369-5.308-7.121-9.683-6.141c-6.561,1.469-13.166,2.793-19.628,3.938
				c-0.077,0.014-0.156,0.028-0.232,0.044c-96.259,19.96-164.812,0.444-205.37-19.442c-42.306-20.745-63.954-46.266-66.284-49.108
				c-0.061-0.073-0.123-0.147-0.186-0.218c-13.413-15.233-23.943-32.63-31.299-51.709c-2.733-7.09-4.984-14.346-6.746-21.708
				c0.03,0.059,0.063,0.117,0.094,0.176c0.76,1.471,1.543,2.928,2.341,4.377c0.258,0.468,0.522,0.932,0.784,1.398
				c0.6,1.068,1.211,2.13,1.831,3.185c0.273,0.464,0.544,0.93,0.821,1.392c0.848,1.413,1.709,2.818,2.594,4.207
				c0.183,0.288,0.374,0.57,0.558,0.857c0.738,1.146,1.489,2.284,2.252,3.414c0.321,0.476,0.646,0.949,0.971,1.421
				c0.718,1.042,1.447,2.076,2.187,3.103c0.265,0.369,0.525,0.741,0.793,1.107c0.967,1.324,1.954,2.634,2.956,3.933
				c0.314,0.407,0.635,0.808,0.952,1.212c0.754,0.961,1.518,1.915,2.292,2.862c0.362,0.443,0.725,0.887,1.091,1.327
				c0.975,1.171,1.963,2.333,2.969,3.482c0.1,0.115,0.196,0.233,0.297,0.348c4.411,5.358,27.467,31.639,71.594,53.277
				c0.855,0.419,1.727,0.839,2.606,1.257c0.017,0.008,0.033,0.016,0.05,0.024c29.163,13.891,71.204,27.256,125.886,28.133
				c0.005,0,0.011,0,0.016,0c1.881,0.03,3.776,0.046,5.687,0.046c0.003,0,0.005,0,0.008,0c0.004,0,0.006,0,0.011,0
				c0.013,0,0.027,0,0.04,0c1.526,0,3.064-0.012,4.609-0.032c0.21-0.003,0.421-0.006,0.631-0.009
				c1.467-0.021,2.942-0.052,4.425-0.092c0.095-0.003,0.189-0.005,0.283-0.007c15.846-0.436,32.667-1.925,50.455-4.719
				c0.149-0.023,0.298-0.047,0.447-0.07c1.465-0.232,2.936-0.472,4.414-0.722c0.292-0.049,0.583-0.098,0.875-0.147
				c1.321-0.226,2.648-0.46,3.979-0.7c0.399-0.072,0.799-0.142,1.198-0.215c1.228-0.225,2.462-0.459,3.698-0.697
				c0.466-0.089,0.931-0.175,1.398-0.266c1.327-0.259,2.662-0.529,3.999-0.803c0.324-0.066,0.647-0.128,0.971-0.195
				c29.617-5.252,60.099-13.746,90.602-25.246c0.061-0.023,0.093-0.036,0.152-0.059c0.008-0.002,0.018-0.008,0.032-0.013
				c0.352-0.134,0.7-0.278,0.993-0.409c23.149-10.111,41.717-22.974,55.221-38.266l0.371-0.435c0.685-0.816,1.34-1.665,2.007-2.501
				c0.471-0.591,0.956-1.166,1.417-1.766c0.615-0.8,1.201-1.626,1.798-2.441c0.496-0.678,1.006-1.344,1.49-2.032
				c0.573-0.815,1.117-1.652,1.672-2.481c0.479-0.716,0.97-1.422,1.436-2.148c0.531-0.827,1.034-1.674,1.547-2.514
				c0.401-0.657,0.82-1.302,1.21-1.966c-2.165,12.292-6.342,24.244-12.444,35.317c-0.065,0.118-0.133,0.236-0.166,0.293
				c-0.296,0.49-0.589,1.003-0.884,1.552c-0.015,0.026-0.045,0.084-0.059,0.111l-0.097,0.173c-3.32,5.736-7.138,11.187-11.34,16.194
				l-0.148,0.175c-11.894,13.469-28.555,24.941-49.575,34.124c-0.084,0.037-0.17,0.072-0.256,0.105
				c-0.023,0.009-0.096,0.037-0.119,0.047c-0.009,0.003-0.022,0.009-0.038,0.015l-2.111,0.796
				c-13.002,4.906-26.446,9.979-38.89,13.566c-4.303,1.24-6.785,5.734-5.545,10.036c1.241,4.302,5.734,6.787,10.036,5.544
				c13.07-3.768,26.822-8.956,40.123-13.976l2.166-0.817c0.063-0.024,0.092-0.035,0.154-0.059c0.004-0.002,0.013-0.005,0.024-0.01
				c0.355-0.135,0.706-0.28,1.001-0.412c23.149-10.111,41.717-22.974,55.221-38.267l0.371-0.433
				c4.811-5.731,9.173-11.958,12.979-18.534c0.138-0.241,0.273-0.482,0.402-0.729c0.15-0.279,0.301-0.544,0.485-0.849
				c0.149-0.25,0.295-0.503,0.453-0.788c14.435-26.196,19.434-56.664,14.148-85.975
				C514.127,273.178,511.972,248.996,503.266,226.412z M31.088,153.883c18.601-41.94,52.354-74.099,95.042-90.554
				c19.816-7.639,40.586-11.512,61.731-11.512c50.677,0,98.486,22.251,131.165,61.049c0.129,0.152,0.264,0.3,0.403,0.444
				c0.294,0.3,0.573,0.637,0.83,1c0.109,0.158,0.227,0.309,0.348,0.458c1.549,1.894,3.059,3.822,4.487,5.73
				c0.103,0.137,0.209,0.271,0.32,0.401c8.682,10.189,32.486,34.357,65.922,38.708c0.111,0.014,0.222,0.026,0.334,0.036
				c43.064,3.801,80.928,32.298,96.464,72.602c7.778,20.173,9.576,41.802,5.583,62.519c-0.004,0.02-0.01,0.038-0.014,0.058
				c-1.133,5.857-2.718,11.596-4.735,17.176c-0.017,0.046-0.034,0.092-0.051,0.138c-0.471,1.298-0.968,2.587-1.487,3.868
				c-0.043,0.106-0.084,0.213-0.127,0.319c-0.536,1.313-1.096,2.616-1.68,3.909c-0.049,0.108-0.101,0.215-0.15,0.323
				c-0.511,1.121-1.044,2.232-1.592,3.337c-0.136,0.274-0.271,0.547-0.409,0.82c-0.611,1.208-1.237,2.41-1.892,3.598
				c-0.065,0.118-0.133,0.236-0.166,0.293c-0.296,0.49-0.589,1.003-0.884,1.552c-0.015,0.026-0.045,0.084-0.059,0.111l-0.097,0.173
				c-3.32,5.736-7.138,11.187-11.34,16.194l-0.148,0.175c-11.894,13.469-28.555,24.941-49.575,34.124
				c-0.084,0.037-0.17,0.072-0.256,0.105c-0.023,0.009-0.096,0.037-0.119,0.046c-0.01,0.003-0.023,0.01-0.04,0.016
				c-29.586,11.15-59.113,19.376-87.764,24.449c-0.078,0.014-0.156,0.028-0.232,0.044c-0.585,0.121-1.164,0.234-1.746,0.353
				c-0.983,0.2-1.967,0.401-2.949,0.593c-0.601,0.118-1.196,0.228-1.795,0.343c-1.022,0.195-2.044,0.391-3.064,0.578
				c-0.519,0.095-1.034,0.186-1.552,0.279c-1.129,0.203-2.257,0.404-3.384,0.597c-0.411,0.071-0.821,0.139-1.231,0.208
				c-1.272,0.214-2.542,0.423-3.811,0.625c-0.274,0.044-0.548,0.087-0.822,0.13c-1.496,0.234-2.99,0.461-4.481,0.678
				c-0.051,0.007-0.102,0.015-0.153,0.023c-13.142,1.904-26.118,3.125-38.841,3.654c-0.191,0.008-0.381,0.014-0.573,0.022
				c-1.263,0.05-2.523,0.093-3.781,0.13c-0.426,0.012-0.851,0.024-1.275,0.034c-1.055,0.027-2.108,0.048-3.159,0.066
				c-0.458,0.007-0.917,0.016-1.372,0.022c-1.253,0.016-2.503,0.024-3.751,0.026c-0.194,0-0.391,0.003-0.585,0.003
				c-1.638,0-3.262-0.016-4.877-0.04c-0.335-0.005-0.668-0.011-1.002-0.017c-53.219-0.951-93.246-14.484-118.432-26.432
				c-0.138-0.066-0.278-0.131-0.415-0.197c-0.787-0.375-1.561-0.749-2.319-1.12c-1.322-0.648-2.624-1.301-3.906-1.958
				c-35.889-18.39-55.994-39.779-61.212-45.776c-0.559-0.642-0.947-1.108-1.166-1.375c-0.061-0.073-0.122-0.147-0.186-0.218
				c-12.574-14.281-22.616-30.464-29.883-48.152c-0.484-1.179-0.957-2.365-1.416-3.557c-0.578-1.499-1.13-3.007-1.666-4.521
				c-0.123-0.347-0.238-0.696-0.359-1.044c-0.425-1.228-0.841-2.459-1.238-3.696c-0.094-0.291-0.185-0.583-0.277-0.874
				c-0.449-1.424-0.885-2.853-1.296-4.288c-0.018-0.063-0.037-0.126-0.055-0.188c-2.333-8.164-4.06-16.493-5.156-24.897
				c-0.031-0.237-0.074-0.47-0.124-0.699C13.683,214.23,18.202,182.937,31.088,153.883z" />
            <path d="M72.152,325.755c0.094,0.105,0.184,0.213,0.333,0.402c0.195,0.24,19.018,23.263,56.778,42.675
				c1.805,0.928,3.638,1.85,5.53,2.759c35.068,16.844,74.423,25.384,116.974,25.384c18.372,0,37.554-1.608,57.24-4.778
				c6.085-0.98,12.217-2.104,18.39-3.383l0.454-0.093c27.583-4.863,56.062-12.78,84.646-23.528c0.138-0.052,0.276-0.108,0.412-0.168
				c14.72-6.477,27.289-14.4,36.847-23.181c2.206-2.026,4.251-4.098,6.125-6.209c0.053-0.063,0.107-0.124,0.16-0.187
				c3.462-4.147,6.611-8.641,9.358-13.355c0.045-0.077,0.089-0.157,0.132-0.236c0.342-0.636,0.69-1.243,1.034-1.828
				c0.045-0.077,0.09-0.156,0.133-0.234c13.723-25.089,15.706-54.752,5.442-81.386c-13.458-34.911-45-58.56-82.292-61.717
				c-0.172-0.015-0.344-0.035-0.513-0.058c-0.044-0.007-0.089-0.013-0.133-0.019c-38.268-4.944-64.808-30.35-77.21-45.04
				c-0.131-0.154-0.255-0.312-0.339-0.425c-1.454-1.96-3.034-3.977-4.742-6.048c-0.046-0.058-0.093-0.116-0.141-0.173l-0.138-0.163
				c-29.441-35.461-72.734-55.798-118.777-55.798c0,0,0,0-0.001,0s0,0,0,0c-19.034,0-37.726,3.485-55.557,10.358
				C52.849,109.952,13.129,199.502,43.755,278.948C50.417,296.233,59.963,311.972,72.152,325.755z M294.221,135.204l0.037,0.044
				l0.012,0.015c0.036,0.044,0.072,0.087,0.108,0.13c0.032,0.038,0.062,0.077,0.095,0.115c1.477,1.795,2.875,3.581,4.192,5.354
				c0.293,0.388,0.595,0.771,0.922,1.159c13.926,16.494,43.804,45.002,87.472,50.668c0.457,0.065,0.919,0.117,1.397,0.159
				c31.078,2.631,57.346,22.323,68.553,51.393c8.531,22.135,6.899,46.788-4.477,67.661c-0.404,0.686-0.809,1.398-1.21,2.138
				c-2.254,3.856-4.826,7.527-7.65,10.919c-8.423,9.448-21.243,18.134-37.093,25.134c-24.132,9.063-48.151,16.032-71.6,20.776
				c-3.349,0.677-6.687,1.309-10.012,1.896l-0.596,0.114c-0.007,0.001-0.014,0.003-0.022,0.005c-0.033,0.006-0.066,0.013-0.099,0.02
				c-0.003,0.001-0.036,0.008-0.065,0.014c-0.022,0.005-0.028,0.006-0.049,0.011c-0.025,0.005-0.055,0.012-0.058,0.013
				c-25.035,5.189-49.365,7.82-72.311,7.82c-25.983,0-50.652-3.381-73.747-10.04c-12.548-3.618-24.638-8.189-36.206-13.746
				c-8.125-3.902-15.372-8.016-21.746-12.071c-0.041-0.026-0.079-0.051-0.119-0.077c-0.868-0.553-1.721-1.105-2.556-1.655
				c-0.097-0.064-0.189-0.127-0.286-0.191c-0.775-0.512-1.54-1.023-2.286-1.531c-0.06-0.041-0.116-0.081-0.176-0.122
				c-0.777-0.53-1.542-1.059-2.289-1.584c-0.043-0.03-0.084-0.06-0.127-0.09c-0.759-0.534-1.504-1.066-2.231-1.594
				c-0.04-0.029-0.078-0.057-0.118-0.087c-0.726-0.527-1.438-1.052-2.132-1.571c-0.049-0.037-0.095-0.072-0.144-0.109
				c-0.682-0.511-1.352-1.019-2.003-1.52c-0.001-0.001-0.002-0.002-0.003-0.002c-13.235-10.197-20.047-18.259-20.488-18.788
				c-0.279-0.351-0.564-0.692-0.837-0.997c-10.882-12.305-19.425-26.393-25.391-41.869c-27.409-71.104,8.14-151.251,79.244-178.661
				c15.964-6.153,32.694-9.273,49.726-9.273c1.287,0,2.572,0.018,3.854,0.053C231.467,86.334,268.629,104.38,294.221,135.204z" />
		</g>
	</g>
</g>
</svg>