<?xml version="1.0" encoding="utf-8"?>

<!DOCTYPE svg PUBLIC "-//W3C//DTD SVG 1.1//EN"
    "http://www.w3.org/Graphics/SVG/1.1/DTD/svg11.dtd"><!-- Uploaded to: SVG Repo, www.svgrepo.com, Generator: SVG Repo Mixer Tools -->
<svg height="800px" width="800px" version="1.1" id="_x32_" xmlns="http://www.w3.org/2000/svg"
    viewBox="0 0 512 512" xml:space="preserve">
<style type="text/css">
	.st0{fill:#000000;}
</style>
    <g>
	<path class="st0" d="M436.94,75.059C388.56,26.657,324.311,0,255.979,0C187.696,0,123.441,26.657,75.06,75.059
		C26.651,123.454-0.006,187.709,0,256c-0.006,68.29,26.651,132.545,75.06,180.934C123.441,485.343,187.689,512,256,512l0.021-2.103
		l0.013,2.103c68.277,0,132.526-26.657,180.906-75.066C485.349,388.545,512.013,324.291,512,256
		C512.013,187.709,485.349,123.454,436.94,75.059z M419.292,419.293C375.597,462.974,317.597,487.042,256,487.049
		c-61.596-0.007-119.59-24.074-163.292-67.756C49.026,375.597,24.959,317.603,24.952,256c0.007-61.604,24.074-119.598,67.756-163.3
		C136.416,49.019,194.403,24.958,256,24.951c61.597,0.007,119.584,24.068,163.293,67.749c43.682,43.702,67.756,101.696,67.756,163.3
		C487.048,317.603,462.974,375.597,419.292,419.293z" />
        <path class="st0" d="M256,66.838C151.53,66.845,66.846,151.523,66.838,256C66.846,360.477,151.53,445.155,256,445.162
		C360.484,445.155,445.162,360.477,445.162,256C445.162,151.523,360.484,66.845,256,66.838z M374.884,374.878
		c-30.459,30.439-72.428,49.231-118.885,49.238c-46.456-0.007-88.418-18.799-118.871-49.238
		C106.684,344.418,87.884,302.457,87.884,256c0.007-46.457,18.799-88.418,49.244-118.878C167.582,106.683,209.544,87.891,256,87.884
		c46.457,0.007,88.426,18.799,118.885,49.238c30.432,30.46,49.231,72.421,49.231,118.878
		C424.116,302.457,405.316,344.418,374.884,374.878z" />
        <polygon class="st0"
            points="318.104,165.053 317.076,132.107 294.879,132.416 295.907,165.362 	" />
        <polygon class="st0"
            points="129.011,215.6 172.788,237.947 182.969,218.018 139.192,195.657 	" />
        <path class="st0" d="M149.948,288.85c-11.456,0-20.745,9.283-20.745,20.744c0,11.455,9.29,20.745,20.745,20.745
		c11.461,0,20.751-9.29,20.751-20.745C170.699,298.133,161.408,288.85,149.948,288.85z" />
        <path class="st0" d="M252.54,152.893c0-15.922-12.908-28.829-28.815-28.829c-15.928,0-28.829,12.908-28.829,28.829
		c0,15.908,12.901,28.822,28.829,28.822C239.633,181.715,252.54,168.801,252.54,152.893z" />
        <polygon class="st0"
            points="208.167,381.605 240.496,390.806 243.367,369.938 211.044,360.737 	" />
        <path class="st0" d="M234.289,260.364c-13.907,0-25.184,11.277-25.184,25.177c0,13.907,11.276,25.185,25.184,25.185
		c13.907,0,25.178-11.278,25.178-25.185C259.467,271.641,248.196,260.364,234.289,260.364z" />
        <path class="st0" d="M322.516,320.467c-15.462,0-27.993,12.531-27.993,27.987c0,15.462,12.53,27.993,27.993,27.993
		c15.456,0,27.98-12.53,27.98-27.993C350.496,332.998,337.972,320.467,322.516,320.467z" />
        <path class="st0" d="M343.082,241.442c14.003,0,25.363-11.352,25.363-25.356c0-14.004-11.36-25.355-25.363-25.355
		c-14.004,0-25.362,11.352-25.362,25.355C317.72,230.089,329.079,241.442,343.082,241.442z" />
        <polygon class="st0"
            points="387.956,271.298 359.703,290.495 366.266,307.149 394.533,287.959 	" />
</g>
</svg>